<svg version="1.1" id="Layer_1" xmlns="http://www.w3.org/2000/svg" xmlns:xlink="http://www.w3.org/1999/xlink" x="0px" y="0px"
	 width="100%" viewBox="0 0 512 512" enable-background="new 0 0 512 512" xml:space="preserve">
<path fill="#0055AA" opacity="1.000000" stroke="none" 
	d="
M513.000000,225.000000 
	C513.000000,246.020889 513.000000,267.041779 512.587585,288.439270 
	C511.461243,291.759918 510.477631,294.667664 510.075836,297.653687 
	C506.740875,322.438629 498.935699,345.875549 488.205109,368.313049 
	C472.610352,400.921478 450.738220,428.753265 423.289886,452.312897 
	C407.826630,465.585358 391.048523,476.833191 372.907806,485.939178 
	C349.021118,497.929352 323.952179,506.489105 297.334045,510.147949 
	C294.479279,510.540344 291.774414,512.023010 289.000000,513.000000 
	C267.979095,513.000000 246.958206,513.000000 225.560715,512.587585 
	C222.240112,511.461273 219.332413,510.477692 216.346420,510.075867 
	C191.561462,506.740784 168.124542,498.935577 145.686981,488.205048 
	C113.078506,472.610413 85.246872,450.738159 61.687122,423.289978 
	C48.414536,407.826782 37.166859,391.048523 28.060848,372.907806 
	C16.070583,349.021179 7.510945,323.952209 3.852121,297.334045 
	C3.459716,294.479279 1.976958,291.774414 1.000000,289.000000 
	C1.000000,267.979095 1.000000,246.958206 1.412420,225.560715 
	C2.538793,222.239838 3.522448,219.331833 3.924204,216.345551 
	C7.258778,191.559265 15.066201,168.122040 25.796999,145.683395 
	C41.392227,113.072968 63.268150,85.242386 90.716415,61.680447 
	C106.180061,48.406261 122.959709,37.159870 141.103638,28.057526 
	C164.988632,16.075039 190.044525,7.488780 216.665543,3.851840 
	C219.520279,3.461829 222.225449,1.976970 225.000000,0.999997 
	C246.020889,1.000000 267.041779,1.000000 288.439270,1.412416 
	C289.488647,2.205859 290.123749,2.813306 290.840088,2.932546 
	C297.308228,4.009212 303.852692,4.707749 310.258057,6.067255 
	C337.951477,11.945058 363.948425,22.139647 388.327393,36.621132 
	C412.263092,50.839321 432.940674,68.735916 451.276306,89.625618 
	C465.068146,105.338623 476.606567,122.505074 485.927826,141.095657 
	C497.902924,164.979187 506.535370,190.032089 510.148560,216.665848 
	C510.535797,219.520309 512.023071,222.225540 513.000000,225.000000 
M361.979431,139.576996 
	C363.791473,142.261795 365.603485,144.946594 367.415527,147.631393 
	C367.840088,145.352585 367.697235,143.144592 367.075745,141.080750 
	C362.750977,126.719139 353.359985,116.243095 340.410858,109.470924 
	C302.759277,89.779709 265.453979,91.750572 230.183487,114.812927 
	C204.551208,131.573105 186.877625,155.932831 172.980225,182.955353 
	C151.564072,224.597504 143.518280,268.947479 147.176575,315.451050 
	C148.591583,333.438354 152.123535,351.206665 159.486526,367.704346 
	C171.515106,394.655914 193.673447,409.384216 221.725357,416.037537 
	C231.878021,418.445496 242.197678,418.659943 252.599121,417.158203 
	C251.001770,416.339478 249.328323,416.138245 247.650269,415.989075 
	C241.685822,415.458954 235.576599,415.594971 229.779266,414.314697 
	C205.315598,408.912140 188.038284,394.015289 175.973160,372.496002 
	C164.580872,352.176727 161.300568,329.850586 160.147644,307.122864 
	C157.825363,261.344025 169.262589,218.849640 191.165833,178.823898 
	C206.788849,150.274597 228.496536,128.363586 258.603851,115.439957 
	C294.698792,99.946121 335.844482,105.064041 361.979431,139.576996 
M323.077240,139.379730 
	C303.551361,131.939545 284.537415,133.649994 266.086914,142.884338 
	C243.851181,154.013153 228.293625,172.011780 215.892105,192.968750 
	C200.020493,219.789780 191.822891,249.088440 189.221924,279.983154 
	C187.310760,302.684326 187.840500,325.274536 195.050827,347.199493 
	C205.669830,379.489502 229.511215,394.819031 263.095703,391.187958 
	C282.768311,389.061005 299.557068,380.341614 315.025574,368.587616 
	C315.399445,368.303497 315.464142,367.612549 316.236755,365.759064 
	C313.486572,367.061798 311.965668,367.903625 310.359100,368.523315 
	C300.775726,372.219971 291.352844,376.477783 281.529327,379.368958 
	C269.915436,382.786987 257.880127,383.000214 245.904678,380.702820 
	C222.804398,376.271240 210.561890,360.834015 206.152191,339.123199 
	C195.213043,285.265198 204.476486,234.908447 234.831787,188.874344 
	C244.276794,174.550934 256.121918,162.280182 271.820740,154.654709 
	C288.450592,146.576996 305.643219,144.679077 322.802246,153.015472 
	C332.427673,157.691864 337.649750,165.505081 337.003418,176.680450 
	C336.161163,191.242279 321.980438,208.030518 307.675415,211.055939 
	C305.227509,211.573654 302.669403,211.570435 298.806091,211.936279 
	C304.005463,215.641083 308.628754,215.574615 313.075989,214.753296 
	C329.454437,211.728622 344.447205,194.303284 346.674011,176.076614 
	C348.463837,161.427078 339.607849,147.405701 323.077240,139.379730 
M277.156281,131.437042 
	C289.702026,127.710266 302.407471,127.184929 315.147064,130.067062 
	C334.158569,134.368118 350.511230,151.465973 352.015411,168.350540 
	C354.083038,191.560318 339.356232,213.002136 323.186707,217.848953 
	C322.156525,218.157761 321.256317,218.900070 319.377014,219.957672 
	C325.489990,221.031601 330.084747,219.517822 334.484192,217.246796 
	C366.595520,200.670563 372.961609,155.287766 346.405762,130.885803 
	C330.025635,115.834236 310.161499,110.868988 288.538635,113.591911 
	C255.776459,117.717537 229.703049,133.914505 210.054062,160.136688 
	C188.287460,189.184860 178.605545,222.836716 174.392105,258.356354 
	C174.070526,261.067383 174.349838,263.849701 174.349838,266.598877 
	C174.879028,266.619293 175.408218,266.639709 175.937408,266.660126 
	C176.630264,264.477356 177.466141,262.328583 177.994308,260.106659 
	C184.685440,231.958374 196.541824,206.144272 212.821167,182.275345 
	C228.807281,158.836395 248.700943,140.388840 277.156281,131.437042 
M212.104355,397.533813 
	C214.145355,399.024536 216.020126,400.851074 218.252075,401.956116 
	C257.599609,421.436584 308.856567,396.872711 325.771759,370.571289 
	C326.416290,369.569122 326.800995,368.399841 327.306793,367.308441 
	C326.987885,367.036743 326.668976,366.765076 326.350067,366.493378 
	C325.030273,367.536316 323.655762,368.517578 322.398743,369.631378 
	C298.429779,390.869781 271.236023,402.840790 238.470078,399.180511 
	C229.899155,398.223083 221.274368,397.748047 212.104355,397.533813 
z"/>
<path fill="#000000" opacity="1.000000" stroke="none" 
	d="
M513.000000,224.531342 
	C512.023071,222.225540 510.535797,219.520309 510.148560,216.665848 
	C506.535370,190.032089 497.902924,164.979187 485.927826,141.095657 
	C476.606567,122.505074 465.068146,105.338623 451.276306,89.625618 
	C432.940674,68.735916 412.263092,50.839321 388.327393,36.621132 
	C363.948425,22.139647 337.951477,11.945058 310.258057,6.067255 
	C303.852692,4.707749 297.308228,4.009212 290.840088,2.932546 
	C290.123749,2.813306 289.488647,2.205859 288.907959,1.412416 
	C363.593719,1.000000 438.187408,1.000000 513.000000,1.000000 
	C513.000000,75.354088 513.000000,149.708389 513.000000,224.531342 
z"/>
<path fill="#000000" opacity="1.000000" stroke="none" 
	d="
M224.531342,0.999997 
	C222.225449,1.976970 219.520279,3.461829 216.665543,3.851840 
	C190.044525,7.488780 164.988632,16.075039 141.103638,28.057526 
	C122.959709,37.159870 106.180061,48.406261 90.716415,61.680447 
	C63.268150,85.242386 41.392227,113.072968 25.796999,145.683395 
	C15.066201,168.122040 7.258778,191.559265 3.924204,216.345551 
	C3.522448,219.331833 2.538793,222.239838 1.412420,225.092056 
	C1.000000,150.406296 1.000000,75.812576 1.000000,1.000000 
	C75.354088,1.000000 149.708389,1.000000 224.531342,0.999997 
z"/>
<path fill="#000000" opacity="1.000000" stroke="none" 
	d="
M1.000000,289.468658 
	C1.976958,291.774414 3.459716,294.479279 3.852121,297.334045 
	C7.510945,323.952209 16.070583,349.021179 28.060848,372.907806 
	C37.166859,391.048523 48.414536,407.826782 61.687122,423.289978 
	C85.246872,450.738159 113.078506,472.610413 145.686981,488.205048 
	C168.124542,498.935577 191.561462,506.740784 216.346420,510.075867 
	C219.332413,510.477692 222.240112,511.461273 225.092056,512.587585 
	C150.406296,513.000000 75.812599,513.000000 1.000000,513.000000 
	C1.000000,438.645905 1.000000,364.291626 1.000000,289.468658 
z"/>
<path fill="#000000" opacity="1.000000" stroke="none" 
	d="
M289.468658,513.000000 
	C291.774414,512.023010 294.479279,510.540344 297.334045,510.147949 
	C323.952179,506.489105 349.021118,497.929352 372.907806,485.939178 
	C391.048523,476.833191 407.826630,465.585358 423.289886,452.312897 
	C450.738220,428.753265 472.610352,400.921478 488.205109,368.313049 
	C498.935699,345.875549 506.740875,322.438629 510.075836,297.653687 
	C510.477631,294.667664 511.461243,291.759918 512.587585,288.907959 
	C513.000000,363.593719 513.000000,438.187408 513.000000,513.000000 
	C438.645905,513.000000 364.291626,513.000000 289.468658,513.000000 
z"/>
<path fill="#FAFBFD" opacity="1.000000" stroke="none" 
	d="
M361.757904,139.294769 
	C335.844482,105.064041 294.698792,99.946121 258.603851,115.439957 
	C228.496536,128.363586 206.788849,150.274597 191.165833,178.823898 
	C169.262589,218.849640 157.825363,261.344025 160.147644,307.122864 
	C161.300568,329.850586 164.580872,352.176727 175.973160,372.496002 
	C188.038284,394.015289 205.315598,408.912140 229.779266,414.314697 
	C235.576599,415.594971 241.685822,415.458954 247.650269,415.989075 
	C249.328323,416.138245 251.001770,416.339478 252.599121,417.158203 
	C242.197678,418.659943 231.878021,418.445496 221.725357,416.037537 
	C193.673447,409.384216 171.515106,394.655914 159.486526,367.704346 
	C152.123535,351.206665 148.591583,333.438354 147.176575,315.451050 
	C143.518280,268.947479 151.564072,224.597504 172.980225,182.955353 
	C186.877625,155.932831 204.551208,131.573105 230.183487,114.812927 
	C265.453979,91.750572 302.759277,89.779709 340.410858,109.470924 
	C353.359985,116.243095 362.750977,126.719139 367.075745,141.080750 
	C367.697235,143.144592 367.840088,145.352585 367.415527,147.631393 
	C365.603485,144.946594 363.791473,142.261795 361.757904,139.294769 
z"/>
<path fill="#F9FBFD" opacity="1.000000" stroke="none" 
	d="
M323.406067,139.568787 
	C339.607849,147.405701 348.463837,161.427078 346.674011,176.076614 
	C344.447205,194.303284 329.454437,211.728622 313.075989,214.753296 
	C308.628754,215.574615 304.005463,215.641083 298.806091,211.936279 
	C302.669403,211.570435 305.227509,211.573654 307.675415,211.055939 
	C321.980438,208.030518 336.161163,191.242279 337.003418,176.680450 
	C337.649750,165.505081 332.427673,157.691864 322.802246,153.015472 
	C305.643219,144.679077 288.450592,146.576996 271.820740,154.654709 
	C256.121918,162.280182 244.276794,174.550934 234.831787,188.874344 
	C204.476486,234.908447 195.213043,285.265198 206.152191,339.123199 
	C210.561890,360.834015 222.804398,376.271240 245.904678,380.702820 
	C257.880127,383.000214 269.915436,382.786987 281.529327,379.368958 
	C291.352844,376.477783 300.775726,372.219971 310.359100,368.523315 
	C311.965668,367.903625 313.486572,367.061798 316.236755,365.759064 
	C315.464142,367.612549 315.399445,368.303497 315.025574,368.587616 
	C299.557068,380.341614 282.768311,389.061005 263.095703,391.187958 
	C229.511215,394.819031 205.669830,379.489502 195.050827,347.199493 
	C187.840500,325.274536 187.310760,302.684326 189.221924,279.983154 
	C191.822891,249.088440 200.020493,219.789780 215.892105,192.968750 
	C228.293625,172.011780 243.851181,154.013153 266.086914,142.884338 
	C284.537415,133.649994 303.551361,131.939545 323.406067,139.568787 
z"/>
<path fill="#FAFCFD" opacity="1.000000" stroke="none" 
	d="
M276.781189,131.582764 
	C248.700943,140.388840 228.807281,158.836395 212.821167,182.275345 
	C196.541824,206.144272 184.685440,231.958374 177.994308,260.106659 
	C177.466141,262.328583 176.630264,264.477356 175.937408,266.660126 
	C175.408218,266.639709 174.879028,266.619293 174.349838,266.598877 
	C174.349838,263.849701 174.070526,261.067383 174.392105,258.356354 
	C178.605545,222.836716 188.287460,189.184860 210.054062,160.136688 
	C229.703049,133.914505 255.776459,117.717537 288.538635,113.591911 
	C310.161499,110.868988 330.025635,115.834236 346.405762,130.885803 
	C372.961609,155.287766 366.595520,200.670563 334.484192,217.246796 
	C330.084747,219.517822 325.489990,221.031601 319.377014,219.957672 
	C321.256317,218.900070 322.156525,218.157761 323.186707,217.848953 
	C339.356232,213.002136 354.083038,191.560318 352.015411,168.350540 
	C350.511230,151.465973 334.158569,134.368118 315.147064,130.067062 
	C302.407471,127.184929 289.702026,127.710266 276.781189,131.582764 
z"/>
<path fill="#F6F9FC" opacity="1.000000" stroke="none" 
	d="
M212.389343,397.292633 
	C221.274368,397.748047 229.899155,398.223083 238.470078,399.180511 
	C271.236023,402.840790 298.429779,390.869781 322.398743,369.631378 
	C323.655762,368.517578 325.030273,367.536316 326.350067,366.493378 
	C326.668976,366.765076 326.987885,367.036743 327.306793,367.308441 
	C326.800995,368.399841 326.416290,369.569122 325.771759,370.571289 
	C308.856567,396.872711 257.599609,421.436584 218.252075,401.956116 
	C216.020126,400.851074 214.145355,399.024536 212.389343,397.292633 
z"/>
</svg>