<svg xmlns="http://www.w3.org/2000/svg" xmlns:xlink="http://www.w3.org/1999/xlink" version="1.1" width="1000" height="1000" viewBox="0 0 1000 1000" xml:space="preserve">
<desc>Created with Fabric.js 3.5.0</desc>
<defs>
</defs>
<rect x="0" y="0" width="100%" height="100%" fill="rgba(255,255,255,0)"/>
<g transform="matrix(1.9732 0 0 1.9732 500.7301 500.7301)" id="Layer_1">
<path style="stroke: none; stroke-width: 1; stroke-dasharray: none; stroke-linecap: butt; stroke-dashoffset: 0; stroke-linejoin: miter; stroke-miterlimit: 4; is-custom-font: none; font-file-url: none; fill: rgb(0,85,170); fill-rule: nonzero; opacity: 1;" transform=" translate(-257, -257)" d="M 513 225 C 513 246.020889 513 267.041779 512.587585 288.43927 C 511.461243 291.759918 510.477631 294.667664 510.075836 297.653687 C 506.740875 322.438629 498.935699 345.875549 488.205109 368.313049 C 472.610352 400.921478 450.73822 428.753265 423.289886 452.312897 C 407.82663 465.585358 391.048523 476.833191 372.907806 485.939178 C 349.021118 497.929352 323.952179 506.489105 297.334045 510.147949 C 294.479279 510.540344 291.774414 512.02301 289 513 C 267.979095 513 246.958206 513 225.560715 512.587585 C 222.240112 511.461273 219.332413 510.477692 216.34642 510.075867 C 191.561462 506.740784 168.124542 498.935577 145.686981 488.205048 C 113.078506 472.610413 85.246872 450.738159 61.687122 423.289978 C 48.414536 407.826782 37.166859 391.048523 28.060848 372.907806 C 16.070583 349.021179 7.510945 323.952209 3.852121 297.334045 C 3.459716 294.479279 1.976958 291.774414 1 289 C 1 267.979095 1 246.958206 1.41242 225.560715 C 2.538793 222.239838 3.522448 219.331833 3.924204 216.345551 C 7.258778 191.559265 15.066201 168.12204 25.796999 145.683395 C 41.392227 113.072968 63.26815 85.242386 90.716415 61.680447 C 106.180061 48.406261 122.959709 37.15987 141.103638 28.057526 C 164.988632 16.075039 190.044525 7.48878 216.665543 3.85184 C 219.520279 3.461829 222.225449 1.97697 225 0.999997 C 246.020889 1 267.041779 1 288.43927 1.412416 C 289.488647 2.205859 290.123749 2.813306 290.840088 2.932546 C 297.308228 4.009212 303.852692 4.707749 310.258057 6.067255 C 337.951477 11.945058 363.948425 22.139647 388.327393 36.621132 C 412.263092 50.839321 432.940674 68.735916 451.276306 89.625618 C 465.068146 105.338623 476.606567 122.505074 485.927826 141.095657 C 497.902924 164.979187 506.53537 190.032089 510.14856 216.665848 C 510.535797 219.520309 512.023071 222.22554 513 225 M 361.979431 139.576996 C 363.791473 142.261795 365.603485 144.946594 367.415527 147.631393 C 367.840088 145.352585 367.697235 143.144592 367.075745 141.08075 C 362.750977 126.719139 353.359985 116.243095 340.410858 109.470924 C 302.759277 89.779709 265.453979 91.750572 230.183487 114.812927 C 204.551208 131.573105 186.877625 155.932831 172.980225 182.955353 C 151.564072 224.597504 143.51828 268.947479 147.176575 315.45105 C 148.591583 333.438354 152.123535 351.206665 159.486526 367.704346 C 171.515106 394.655914 193.673447 409.384216 221.725357 416.037537 C 231.878021 418.445496 242.197678 418.659943 252.599121 417.158203 C 251.00177 416.339478 249.328323 416.138245 247.650269 415.989075 C 241.685822 415.458954 235.576599 415.594971 229.779266 414.314697 C 205.315598 408.91214 188.038284 394.015289 175.97316 372.496002 C 164.580872 352.176727 161.300568 329.850586 160.147644 307.122864 C 157.825363 261.344025 169.262589 218.84964 191.165833 178.823898 C 206.788849 150.274597 228.496536 128.363586 258.603851 115.439957 C 294.698792 99.946121 335.844482 105.064041 361.979431 139.576996 M 323.07724 139.37973 C 303.551361 131.939545 284.537415 133.649994 266.086914 142.884338 C 243.851181 154.013153 228.293625 172.01178 215.892105 192.96875 C 200.020493 219.78978 191.822891 249.08844 189.221924 279.983154 C 187.31076 302.684326 187.8405 325.274536 195.050827 347.199493 C 205.66983 379.489502 229.511215 394.819031 263.095703 391.187958 C 282.768311 389.061005 299.557068 380.341614 315.025574 368.587616 C 315.399445 368.303497 315.464142 367.612549 316.236755 365.759064 C 313.486572 367.061798 311.965668 367.903625 310.3591 368.523315 C 300.775726 372.219971 291.352844 376.477783 281.529327 379.368958 C 269.915436 382.786987 257.880127 383.000214 245.904678 380.70282 C 222.804398 376.27124 210.56189 360.834015 206.152191 339.123199 C 195.213043 285.265198 204.476486 234.908447 234.831787 188.874344 C 244.276794 174.550934 256.121918 162.280182 271.82074 154.654709 C 288.450592 146.576996 305.643219 144.679077 322.802246 153.015472 C 332.427673 157.691864 337.64975 165.505081 337.003418 176.68045 C 336.161163 191.242279 321.980438 208.030518 307.675415 211.055939 C 305.227509 211.573654 302.669403 211.570435 298.806091 211.936279 C 304.005463 215.641083 308.628754 215.574615 313.075989 214.753296 C 329.454437 211.728622 344.447205 194.303284 346.674011 176.076614 C 348.463837 161.427078 339.607849 147.405701 323.07724 139.37973 M 277.156281 131.437042 C 289.702026 127.710266 302.407471 127.184929 315.147064 130.067062 C 334.158569 134.368118 350.51123 151.465973 352.015411 168.35054 C 354.083038 191.560318 339.356232 213.002136 323.186707 217.848953 C 322.156525 218.157761 321.256317 218.90007 319.377014 219.957672 C 325.48999 221.031601 330.084747 219.517822 334.484192 217.246796 C 366.59552 200.670563 372.961609 155.287766 346.405762 130.885803 C 330.025635 115.834236 310.161499 110.868988 288.538635 113.591911 C 255.776459 117.717537 229.703049 133.914505 210.054062 160.136688 C 188.28746 189.18486 178.605545 222.836716 174.392105 258.356354 C 174.070526 261.067383 174.349838 263.849701 174.349838 266.598877 C 174.879028 266.619293 175.408218 266.639709 175.937408 266.660126 C 176.630264 264.477356 177.466141 262.328583 177.994308 260.106659 C 184.68544 231.958374 196.541824 206.144272 212.821167 182.275345 C 228.807281 158.836395 248.700943 140.38884 277.156281 131.437042 M 212.104355 397.533813 C 214.145355 399.024536 216.020126 400.851074 218.252075 401.956116 C 257.599609 421.436584 308.856567 396.872711 325.771759 370.571289 C 326.41629 369.569122 326.800995 368.399841 327.306793 367.308441 C 326.987885 367.036743 326.668976 366.765076 326.350067 366.493378 C 325.030273 367.536316 323.655762 368.517578 322.398743 369.631378 C 298.429779 390.869781 271.236023 402.84079 238.470078 399.180511 C 229.899155 398.223083 221.274368 397.748047 212.104355 397.533813 z" stroke-linecap="round"/>
</g>
</svg>